Coordinates
version=1
nRows=17
nColumns=40
inDegrees=yes

Units are S.I. units (second, meters, Newtons, ...)
Angles are in degrees.

endheader
time	pelvis_tilt	pelvis_list	pelvis_rotation	pelvis_tx	pelvis_ty	pelvis_tz	hip_flexion_r	hip_adduction_r	hip_rotation_r	knee_angle_r	knee_angle_r_beta	ankle_angle_r	subtalar_angle_r	mtp_angle_r	hip_flexion_l	hip_adduction_l	hip_rotation_l	knee_angle_l	knee_angle_l_beta	ankle_angle_l	subtalar_angle_l	mtp_angle_l	lumbar_extension	lumbar_bending	lumbar_rotation	arm_flex_r	arm_add_r	arm_rot_r	elbow_flex_r	pro_sup_r	wrist_flex_r	wrist_dev_r	arm_flex_l	arm_add_l	arm_rot_l	elbow_flex_l	pro_sup_l	wrist_flex_l	wrist_dev_l
      0.00000000	     -0.36584682	     10.10604219	     -9.77734736	     -0.90182646	      0.95517909	      0.99021528	     -2.76917524	    -25.63924702	    -22.17498941	    -43.15826881	     -0.75325389	    -12.94679007	     -4.86936900	      0.84508902	     13.76076971	    -10.51831630	     14.35831488	    -15.52381829	     -0.27094174	      0.33648405	     11.24319338	      0.76830167	      0.24177369	    -12.52500261	      7.17058906	      3.15467190	    -10.56534012	    -10.36289816	     28.81099235	     89.95437384	      0.00000000	      0.00000000	     -8.32758076	     10.89792009	     18.80981219	     10.46855053	     89.95437384	      0.00000000	      0.00000000
      0.01000000	     -0.52510827	     10.07527517	     -9.91543646	     -0.89490563	      0.95556790	      0.98877275	     -1.05740482	    -25.89723704	    -21.16938551	    -45.16322916	     -0.78824705	    -12.39101013	     -6.61809634	      0.82618716	     13.22264378	    -10.64041323	     14.58967137	    -15.06538470	     -0.26294057	      0.78773391	     10.73699187	      0.82063072	      0.28464268	    -12.38604861	      7.16621518	      3.20243747	    -10.44857857	    -10.59510251	     28.27124582	     89.95437384	      0.00000000	      0.00000000	     -7.62381574	     10.77374489	     18.75296273	     10.89877924	     89.95437384	      0.00000000	      0.00000000
      0.02000000	     -1.06255910	     10.07711977	    -10.20464086	     -0.88889245	      0.95523327	      0.98751593	      1.48798395	    -26.01812553	    -19.75020171	    -47.40831923	     -0.82743126	    -11.67574993	     -8.82761493	      1.20882721	     13.38579626	    -10.61457850	     15.13121775	    -15.02702548	     -0.26227107	      1.04071529	     10.33339901	      0.96063326	      0.69064493	    -12.20815076	      7.38189022	      3.22583556	    -10.33980108	    -11.02223599	     27.82338441	     89.95437384	      0.00000000	      0.00000000	     -6.87884664	     10.58977437	     18.89434479	     11.38676310	     89.95437384	      0.00000000	      0.00000000
      0.03000000	     -1.14366394	      9.87169761	    -10.34799715	     -0.88224921	      0.95576048	      0.98637542	      3.07205495	    -25.94686223	    -18.98892149	    -49.05428257	     -0.85615874	    -10.59871924	    -10.17840520	      1.32477654	     12.73562792	    -10.54192579	     15.35450013	    -14.55117760	     -0.25396596	      1.45350627	      9.80323738	      0.90622282	      0.56472579	    -11.90716487	      7.29189306	      3.29424864	    -10.29888081	    -11.07031227	     27.34569369	     89.95437384	      0.00000000	      0.00000000	     -6.21862686	     10.43215107	     18.87997430	     12.04703171	     89.95437384	      0.00000000	      0.00000000
      0.04000000	     -1.29754225	      9.75098664	    -10.54626222	     -0.87590092	      0.95612572	      0.98532110	      4.85920009	    -25.85946137	    -18.04708013	    -50.58461510	     -0.88286808	     -9.61519594	    -11.69833221	      1.58398233	     12.27682417	    -10.53129033	     15.63250106	    -14.22294558	     -0.24823723	      1.68787977	      9.34802580	      0.84004826	      0.49727709	    -11.68291779	      7.27604693	      3.39262324	    -10.20028836	    -11.36975694	     26.87031406	     89.95437384	      0.00000000	      0.00000000	     -5.49227108	     10.28591219	     18.85777341	     12.71844990	     89.95437384	      0.00000000	      0.00000000
      0.05000000	     -1.47288869	      9.57368102	    -10.71594008	     -0.86966497	      0.95651829	      0.98437131	      6.62566986	    -25.61746902	    -17.15223013	    -51.89994638	     -0.90582495	     -8.74016770	    -13.08554415	      1.96793996	     11.81479599	    -10.44802869	     15.91752479	    -13.84070353	     -0.24156585	      1.99768781	      9.01919061	      0.75879851	      0.43712243	    -11.40180014	      7.24649005	      3.46127445	    -10.12180687	    -11.61682615	     26.43144607	     89.95437384	      0.00000000	      0.00000000	     -4.74561591	     10.14232738	     18.68065161	     13.41149701	     89.95437384	      0.00000000	      0.00000000
      0.06000000	     -1.51783882	      9.23495593	    -10.57552117	     -0.86316502	      0.95717800	      0.98299077	      7.86530754	    -25.41370243	    -17.14135047	    -52.83239343	     -0.92209922	     -8.29252164	    -13.40721783	      2.01087257	     11.22557448	    -10.26007368	     16.15884509	    -13.63603829	     -0.23799377	      2.23104269	      8.78738845	      0.70246075	      0.13804675	    -10.95985904	      6.88516138	      3.39373211	    -10.16458082	    -11.63755140	     26.27530201	     89.95437384	      0.00000000	      0.00000000	     -3.96500669	      9.98151674	     18.48156298	     14.07532528	     89.95437384	      0.00000000	      0.00000000
      0.07000000	     -1.96688342	      9.10580474	    -10.89999654	     -0.85765070	      0.95716271	      0.98272648	     10.21772029	    -24.79307561	    -15.65755590	    -54.10371769	     -0.94428801	     -5.04116866	    -14.84278119	     15.18022304	     11.13846836	    -10.05169071	     16.80061853	    -13.31878290	     -0.23245661	      2.24410267	      7.86677596	     -0.22973257	      0.37003235	    -10.71073727	      7.18045817	      3.48229330	     -9.99493361	    -12.35289836	     25.71020383	     89.95437384	      0.00000000	      0.00000000	     -3.20022061	      9.96674164	     17.55524818	     14.94244596	     89.95437384	      0.00000000	      0.00000000
      0.08000000	     -2.03070544	      8.79486802	    -10.64880363	     -0.85132090	      0.95785310	      0.98142229	     11.36255922	    -24.46335939	    -15.69667625	    -54.58912663	     -0.95276000	     -4.55475591	    -14.93583602	     14.88039959	     10.54429553	     -9.90733031	     16.92315040	    -13.06751114	     -0.22807109	      2.49086217	      7.68136768	     -0.27585040	      0.06378791	    -10.31429729	      6.67918382	      3.41911703	    -10.00288054	    -12.27906951	     25.56277327	     89.95437384	      0.00000000	      0.00000000	     -2.36266598	      9.86180442	     17.33714728	     15.57985243	     89.95437384	      0.00000000	      0.00000000
      0.09000000	     -2.04100832	      8.48797924	    -10.60896109	     -0.84520789	      0.95864425	      0.98074250	     12.51901940	    -23.79078002	    -15.10893096	    -54.87970191	     -0.95783149	     -3.19682722	    -15.65741877	     14.58501424	      9.77754887	     -9.79618412	     16.59743212	    -12.50872805	     -0.21831849	      2.68245437	      7.24029271	     -0.35266923	     -0.25617263	     -9.95824462	      6.43584262	      3.52139909	    -10.00255541	    -12.29368610	     25.11074190	     89.95437384	      0.00000000	      0.00000000	     -1.59236048	      9.83959335	     16.74945557	     16.46459817	     89.95437384	      0.00000000	      0.00000000
      0.10000000	     -1.95327071	      8.09317973	    -10.31529332	     -0.83898886	      0.95960786	      0.97994156	     13.33492024	    -23.16560728	    -15.07167773	    -54.89847650	     -0.95815917	     -2.32763565	    -15.96317723	     14.81306218	      8.97243339	     -9.55962398	     16.56144630	    -12.15088558	     -0.21207296	      2.73373934	      6.83886321	     -0.54494344	     -0.73724602	     -9.54949701	      6.06311570	      3.50435801	     -9.89495867	    -12.98749801	     24.79392275	     89.95437384	      0.00000000	      0.00000000	     -0.88846388	      9.98378178	     14.95484931	     17.59986167	     89.95437384	      0.00000000	      0.00000000
      0.11000000	     -2.06571964	      7.83886741	     -9.99220960	     -0.83269380	      0.96006659	      0.97875375	     14.44263625	    -22.79852786	    -15.20866674	    -54.88041661	     -0.95784396	     -1.74157857	    -15.99143743	     14.56561813	      8.50210782	     -9.45376875	     16.57138665	    -11.96502405	     -0.20882906	      2.92287155	      6.62670064	     -0.60092966	     -0.94473674	     -9.19679535	      5.54999373	      3.39572197	     -9.90627737	    -12.92151802	     24.65719487	     89.95437384	      0.00000000	      0.00000000	     -0.02582423	      9.92301956	     14.64967159	     18.24293334	     89.95437384	      0.00000000	      0.00000000
      0.12000000	     -1.98020851	      7.30640601	     -9.50163837	     -0.82650662	      0.96105781	      0.97791249	     14.99688978	    -21.96882237	    -15.43207956	    -54.43175221	     -0.95001329	     -0.69647546	    -16.23580825	     14.65928049	      7.69703300	     -9.09188524	     15.98127612	    -11.66445349	     -0.20358312	      3.05196902	      6.23373825	     -0.82500581	     -1.44735122	     -8.63251246	      4.94197098	      3.43380554	     -9.89499964	    -13.19649441	     24.26769259	     89.95437384	      0.00000000	      0.00000000	      0.65126125	     10.09446812	     13.03704181	     19.37997701	     89.95437384	      0.00000000	      0.00000000
      0.13000000	     -2.07085247	      6.94680351	     -9.03244989	     -0.82038432	      0.96158684	      0.97687171	     15.89695697	    -21.37162880	    -15.59835617	    -53.98009487	     -0.94213039	     -0.02048989	    -16.30173552	     14.62037913	      7.16520123	     -8.87767561	     15.54646907	    -11.42134480	     -0.19934007	      3.24612129	      5.92972907	     -0.97891432	     -1.69683618	     -8.18432243	      4.33695148	      3.40865747	     -9.84393738	    -13.49309918	     23.96375677	     89.95437384	      0.00000000	      0.00000000	      1.46185646	     10.18952185	     12.04863311	     20.21545100	     89.95437384	      0.00000000	      0.00000000
      0.14000000	     -2.02387794	      6.49673914	     -8.44256669	     -0.81409271	      0.96225856	      0.97565472	     16.44879767	    -20.78789120	    -16.11343179	    -53.24941671	     -0.92937765	      0.47157798	    -16.24260383	     14.85231585	      6.53087466	     -8.59466401	     15.04351368	    -11.32045950	     -0.19757929	      3.45155717	      5.86758798	     -1.25546228	     -2.11482854	     -7.65101145	      3.70077648	      3.33921212	     -9.82140845	    -14.09432077	     23.70005705	     89.95437384	      0.00000000	      0.00000000	      2.22877736	     10.37372703	     10.39810442	     21.18876530	     89.95437384	      0.00000000	      0.00000000
      0.15000000	     -2.19886451	      6.36719060	     -8.08716014	     -0.80797649	      0.96233435	      0.97471843	     17.55036892	    -20.48770152	    -16.24690304	    -52.60054084	     -0.91805263	      0.76689794	    -16.01256514	     14.64424138	      6.25169354	     -8.55674814	     15.09430509	    -11.26781573	     -0.19666048	      3.66995164	      5.75026644	     -1.31085323	     -2.18001496	     -7.42579119	      3.16246738	      3.19486430	     -9.80819510	    -14.08125143	     23.62838501	     89.95437384	      0.00000000	      0.00000000	      3.04495501	     10.41885474	     10.06209578	     21.86825585	     89.95437384	      0.00000000	      0.00000000
      0.16000000	     -2.12243866	      5.69130620	     -7.34911983	     -0.80175609	      0.96303459	      0.97391200	     17.82624551	    -19.58720286	    -16.96163402	    -51.45830942	     -0.89811693	      1.33975352	    -16.03933941	     14.89365179	      5.57937311	     -8.00406251	     14.02288676	    -11.25570818	     -0.19644917	      4.03567188	      5.73610351	     -1.65717167	     -2.63745537	     -6.68701175	      2.44084612	      3.22241110	     -9.68504698	    -15.09926631	     23.19039576	     89.95437384	      0.00000000	      0.00000000	      3.79841118	     10.76613164	      7.91030004	     22.93667592	     89.95437384	      0.00000000	      0.00000000
